<svg version="1.1" xmlns="http://www.w3.org/2000/svg" viewBox="-377.51568361395744 -18.995683650478544 735.8133326474687 37.991367300957094" fill="none" stroke="black" stroke-width="0.6%" vector-effect="non-scaling-stroke">
    <path d="M 334.68061 -13.19794 L 0 -17.99568 L -376.51568 -5.39746 L -329.45122 -4.72277 L -102.85724 -12.30462 L 179.52952 -8.25652 L -47.06446 -0.67468 L 0 0 L 349.13272 -11.68199 A 50 1.09506 180 0 0 357.29765 -12.28171 L 357.29765 5.71397" />
    <path d="M -376.51568 12.59823 L -376.51568 -5.39746" />
    <path d="M -329.45122 13.27291 L -329.45122 -4.72277" />
    <path d="M -376.51568 12.59823 L -329.45122 13.27291 L -102.85724 5.69107 L -47.06446 6.49087" />
    <path d="M -102.85724 5.69107 L -102.85724 -12.30462" />
    <path d="M -47.06446 17.321 L -47.06446 -0.67468" />
    <path d="M 0 17.99568 L 0 0" />
    <path d="M -47.06446 17.321 L 0 17.99568 L 349.13272 6.31369 L 349.13272 -11.68199" />
    <path d="M 349.13272 6.31369 A 50 1.09506 180 0 0 357.29765 5.71397" />
    <path d="M 357.29765 -12.28171 A 50 1.09506 180 0 0 334.68061 -13.19794" />
    <path d="M 26.47019 -14.44244 L 26.47019 -15.8821 L -3.65106 -14.87424 L 247.35939 -11.27593 L 277.48065 -12.28379 L 26.47019 -15.8821" />
</svg>