<svg version="1.1" xmlns="http://www.w3.org/2000/svg" viewBox="-377.51568361395744 -18.995683650478544 745.4223499376918 37.991367300957094" fill="none" stroke="black" stroke-width="0.6%" vector-effect="non-scaling-stroke">
    <path d="M 355.59814 -12.89809 L 0 -17.99568 L -376.51568 -5.39746 L -329.45122 -4.72277 L -65.89024 -13.54153 L 216.49652 -9.49344 L -47.06446 -0.67468 L 0 0 L 362.8242 -12.14011 A 25 0.54753 180 0 0 366.90667 -12.43997 L 366.90667 5.55571" />
    <path d="M -376.51568 12.59823 L -376.51568 -5.39746" />
    <path d="M -329.45122 13.27291 L -329.45122 -4.72277" />
    <path d="M -376.51568 12.59823 L -329.45122 13.27291 L -65.89024 4.45415 L -47.06446 4.72402" />
    <path d="M -65.89024 4.45415 L -65.89024 -13.54153" />
    <path d="M -47.06446 17.321 L -47.06446 -0.67468" />
    <path d="M 0 17.99568 L 0 0" />
    <path d="M -47.06446 17.321 L 0 17.99568 L 362.8242 5.85557 L 362.8242 -12.14011" />
    <path d="M 362.8242 5.85557 A 25 0.54753 180 0 0 366.90667 5.55571" />
    <path d="M 366.90667 -12.43997 A 25 0.54753 180 0 0 355.59814 -12.89809" />
    <path d="M 26.47019 -14.44244 L 26.47019 -15.8821 L -3.65106 -14.87424 L 247.35939 -11.27593 L 277.48065 -12.28379 L 26.47019 -15.8821" />
</svg>