<svg version="1.1" xmlns="http://www.w3.org/2000/svg" viewBox="-377.5157409561568 -18.364785444377535 726.2044224800384 37.36094927799192" fill="none" stroke="black" stroke-width="0.6%" vector-effect="non-scaling-stroke">
    <path d="M -106.96463 5.82833 A 75 1.64267 360 0 1 -47.06459 5.08647" />
    <path d="M -106.96463 -12.16735 A 75 1.64267 360 0 1 -3.13757 -12.64215 L 153.74393 -10.39309 A 75 1.64267 360 0 1 187.66947 -9.01866 A 75 1.64267 360 0 1 175.42207 -8.11904 L -47.06459 -0.67424 L -0.00014 0.00048 L 335.44128 -11.22399 A 75 1.64267 180 0 0 347.68868 -12.12362 L 347.68868 5.87207" />
    <path d="M -47.06459 17.32144 L -47.06459 -0.67424" />
    <path d="M -0.00014 17.99616 L -0.00014 0.00048" />
    <path d="M -47.06459 17.32144 L -0.00014 17.99616 L 335.44128 6.77169 A 75 1.64267 180 0 0 347.68868 5.87207" />
    <path d="M 347.68868 -12.12362 A 75 1.64267 180 0 0 313.76314 -13.49804 L 62.75274 -17.09654 A 75 1.64267 180 0 0 -41.07432 -16.62174 L -376.51574 -5.39727 L -329.45129 -4.72255 L -106.96463 -12.16735" />
    <path d="M -376.51574 12.59842 L -376.51574 -5.39727" />
    <path d="M -329.45129 13.27313 L -329.45129 -4.72255" />
    <path d="M -376.51574 12.59842 L -329.45129 13.27313 L -106.96463 5.82833 L -106.96463 -12.16735" />
    <path d="M 26.81259 -14.42146 L 26.81259 -15.89392 L -3.99325 -14.8631 L 247.01714 -11.2646 L 277.82299 -12.29542 L 26.81259 -15.89392" />
    <path d="M -3.13757 -2.14411 L -3.13757 -12.64215" />
    <path d="M 153.74393 -7.39365 L 153.74393 -10.39309" />
    <path d="M 335.44128 6.77169 L 335.44128 -11.22399" />
</svg>