<svg version="1.1" xmlns="http://www.w3.org/2000/svg" viewBox="-430.47947733359035 -19.042406364972113 840.6806300130895 38.08481272994421" fill="none" stroke="black" stroke-width="0.6%" vector-effect="non-scaling-stroke">
    <path d="M 390.43656 -11.62502 L 0.00743 -18.04241 L -429.47948 -7.01291 L -331.87219 -5.40857 L -54.65792 -12.5276 L 179.59956 -8.67718 L -97.61471 -1.55814 L -0.00743 0.0462 L 398.24406 -10.18114 A 50 1.02726 180 0 0 409.20115 -10.82288 L 409.20115 7.17332" />
    <path d="M -429.47948 10.98329 L -429.47948 -7.01291" />
    <path d="M -331.87219 12.58763 L -331.87219 -5.40857" />
    <path d="M -429.47948 10.98329 L -331.87219 12.58763 L -97.61471 6.57175" />
    <path d="M -54.65792 -2.6613 L -54.65792 -12.5276" />
    <path d="M -97.61471 16.43806 L -97.61471 -1.55814" />
    <path d="M -0.00743 18.04241 L -0.00743 0.0462" />
    <path d="M -97.61471 16.43806 L -0.00743 18.04241 L 398.24406 7.81506 L 398.24406 -10.18114" />
    <path d="M 398.24406 7.81506 A 50 1.02726 180 0 0 409.20115 7.17332" />
    <path d="M 409.20115 -10.82288 A 50 1.02726 180 0 0 390.43656 -11.62502" />
    <path d="M 56.22779 -13.92811 L 56.22779 -15.37522 L 21.86884 -14.49286 L 256.12632 -10.64243 L 290.48527 -11.52479 L 56.22779 -15.37522" />
</svg>