<svg version="1.1" xmlns="http://www.w3.org/2000/svg" viewBox="-377.5212500768771 -17.773032614056948 697.3869283964038 36.8153313312073" fill="none" stroke="black" stroke-width="0.6%" vector-effect="non-scaling-stroke">
    <path d="M -148.03635 7.19342 A 150 3.30219 360 0 1 -47.07733 5.7443" />
    <path d="M -148.03635 -10.80222 A 150 3.30219 360 0 1 59.61923 -11.75654 L 90.99484 -11.3044 A 150 3.30219 360 0 1 158.84171 -8.54151 A 150 3.30219 360 0 1 134.34416 -6.73294 L -47.07733 -0.63155 L -0.01391 0.04666 L 294.36812 -9.8537 A 150 3.30219 180 0 0 318.86568 -11.66227 L 318.86568 6.33337" />
    <path d="M -47.07733 17.36408 L -47.07733 -0.63155" />
    <path d="M -0.01391 18.0423 L -0.01391 0.04666" />
    <path d="M -47.07733 17.36408 L -0.01391 18.0423 L 294.36812 8.14194 A 150 3.30219 180 0 0 318.86568 6.33337" />
    <path d="M 318.86568 -11.66227 A 150 3.30219 180 0 0 251.0188 -14.42516 L 125.51636 -16.23373 A 150 3.30219 180 0 0 -82.13921 -15.27941 L -376.52125 -5.37905 L -329.45783 -4.70084 L -148.03635 -10.80222" />
    <path d="M -376.52125 12.61659 L -376.52125 -5.37905" />
    <path d="M -329.45783 13.2948 L -329.45783 -4.70084" />
    <path d="M -376.52125 12.61659 L -329.45783 13.2948 L -148.03635 7.19342 L -148.03635 -10.80222" />
    <path d="M 26.82314 -14.44921 L 26.82314 -15.92925 L -3.98428 -14.89316 L 247.02061 -11.27602 L 277.82803 -12.31211 L 26.82314 -15.92925" />
    <path d="M 59.61923 -4.21986 L 59.61923 -11.75654" />
    <path d="M 90.99484 -5.27506 L 90.99484 -11.3044" />
    <path d="M 294.36812 8.14194 L 294.36812 -9.8537" />
</svg>