<svg version="1.1" xmlns="http://www.w3.org/2000/svg" viewBox="-411.36467836206117 -18.600865480483332 798.5578930328886 37.59844212014312" fill="none" stroke="black" stroke-width="0.6%" vector-effect="non-scaling-stroke">
    <path d="M -102.59117 5.9914 A 75 1.23093 0 0 1 -51.29558 5.29801" />
    <path d="M -102.59117 -12.00618 A 75 1.23093 0 0 1 -3.41971 -12.62356 L 167.56558 -11.36074 A 75 1.23093 0 0 1 211.78823 -10.23823 A 75 1.23093 0 0 1 205.18234 -9.7331 L -51.29558 -0.37885 L 0 0 L 379.58733 -13.84429 A 75 1.23093 180 0 0 386.19321 -14.34942 L 386.19321 3.64816" />
    <path d="M -51.29558 17.61873 L -51.29558 -0.37885" />
    <path d="M 0 17.99758 L 0 0" />
    <path d="M -51.29558 17.61873 L 0 17.99758 L 379.58733 4.15329 A 75 1.23093 180 0 0 386.19321 3.64816" />
    <path d="M 386.19321 -14.34942 A 75 1.23093 180 0 0 341.97056 -15.47193 L 68.39411 -17.49245 A 75 1.23093 180 0 0 -30.77735 -16.87507 L -410.36468 -3.03078 L -359.06909 -2.65193 L -102.59117 -12.00618" />
    <path d="M -410.36468 14.9668 L -410.36468 -3.03078" />
    <path d="M -359.06909 15.34565 L -359.06909 -2.65193" />
    <path d="M -410.36468 14.9668 L -359.06909 15.34565 L -102.59117 5.9914 L -102.59117 -12.00618" />
    <path d="M 18.38092 -14.656 L 18.38092 -15.66837 L -4.7021 -14.82649 L 268.87436 -12.80597 L 291.95737 -13.64785 L 18.38092 -15.66837" />
    <path d="M -3.41971 -2.12497 L -3.41971 -12.62356" />
    <path d="M 167.56558 -8.36114 L 167.56558 -11.36074" />
    <path d="M 379.58733 4.15329 L 379.58733 -13.84429" />
</svg>