<svg version="1.1" xmlns="http://www.w3.org/2000/svg" viewBox="-377.5209578609532 -19.039851544100376 745.4326666059455 38.07970308820075" fill="none" stroke="black" stroke-width="0.6%" vector-effect="non-scaling-stroke">
    <path d="M 355.60386 -12.91697 L 0.01318 -18.03985 L -376.52096 -5.38002 L -329.45748 -4.70199 L -65.88359 -13.56387 L 216.49724 -9.4957 L -47.07665 -0.63382 L -0.01318 0.04421 L 362.82881 -12.15526 A 25 0.55022 180 0 0 366.91171 -12.45661 L 366.91171 5.53903" />
    <path d="M -376.52096 12.61562 L -376.52096 -5.38002" />
    <path d="M -329.45748 13.29365 L -329.45748 -4.70199" />
    <path d="M -376.52096 12.61562 L -329.45748 13.29365 L -65.88359 4.43177 L -47.07665 4.70271" />
    <path d="M -65.88359 4.43177 L -65.88359 -13.56387" />
    <path d="M -47.07665 17.36182 L -47.07665 -0.63382" />
    <path d="M -0.01318 18.03985 L -0.01318 0.04421" />
    <path d="M -47.07665 17.36182 L -0.01318 18.03985 L 362.82881 5.84038 L 362.82881 -12.15526" />
    <path d="M 362.82881 5.84038 A 25 0.55022 180 0 0 366.91171 5.53903" />
    <path d="M 366.91171 -12.45661 A 25 0.55022 180 0 0 355.60386 -12.91697" />
    <path d="M 26.82258 -14.44774 L 26.82258 -15.92737 L -3.98476 -14.89157 L 247.02043 -11.27542 L 277.82777 -12.31122 L 26.82258 -15.92737" />
</svg>