<svg version="1.1" xmlns="http://www.w3.org/2000/svg" viewBox="-377.5212095402975 -18.40735013949583 726.2146385469518 37.449309381046845" fill="none" stroke="black" stroke-width="0.6%" vector-effect="non-scaling-stroke">
    <path d="M -106.95982 5.81209 A 75 1.65104 360 0 1 -47.07724 5.06652" />
    <path d="M -106.95982 -12.18354 A 75 1.65104 360 0 1 -3.13204 -12.66069 L 153.74605 -10.40006 A 75 1.65104 360 0 1 187.6695 -9.01867 A 75 1.65104 360 0 1 175.42073 -8.11442 L -47.07724 -0.63187 L -0.01381 0.04632 L 335.44466 -11.23506 A 75 1.65104 180 0 0 347.69343 -12.13931 L 347.69343 5.85633" />
    <path d="M -47.07724 17.36377 L -47.07724 -0.63187" />
    <path d="M -0.01381 18.04196 L -0.01381 0.04632" />
    <path d="M -47.07724 17.36377 L -0.01381 18.04196 L 335.44466 6.76058 A 75 1.65104 180 0 0 347.69343 5.85633" />
    <path d="M 347.69343 -12.13931 A 75 1.65104 180 0 0 313.76998 -13.5207 L 62.76504 -17.13771 A 75 1.65104 180 0 0 -41.06274 -16.66056 L -376.52121 -5.37919 L -329.45778 -4.701 L -106.95982 -12.18354" />
    <path d="M -376.52121 12.61645 L -376.52121 -5.37919" />
    <path d="M -329.45778 13.29464 L -329.45778 -4.701" />
    <path d="M -376.52121 12.61645 L -329.45778 13.29464 L -106.95982 5.81209 L -106.95982 -12.18354" />
    <path d="M 26.82306 -14.44901 L 26.82306 -15.92899 L -3.98435 -14.89294 L 247.02059 -11.27594 L 277.828 -12.31198 L 26.82306 -15.92899" />
    <path d="M -3.13204 -2.10973 L -3.13204 -12.66069" />
    <path d="M 153.74605 -7.3855 L 153.74605 -10.40006" />
    <path d="M 335.44466 6.76058 L 335.44466 -11.23506" />
</svg>