<svg version="1.1" xmlns="http://www.w3.org/2000/svg" viewBox="-430.4778461970948 -18.996240453676638 860.9556923941898 37.992480907353276" fill="none" stroke="black" stroke-width="0.6%" vector-effect="non-scaling-stroke">
    <path d="M -97.6086 16.40012 L -97.6086 -1.59612 L 0 0 L 429.47785 -10.97332 L 0 -17.99624 L -429.47785 -7.02292 L -331.86924 -5.4268 L -54.66082 -12.50958 L 179.59983 -8.6789 L -97.6086 -1.59612" />
    <path d="M 0 17.99624 L 0 0" />
    <path d="M -97.6086 16.40012 L 0 17.99624 L 429.47785 7.02292 L 429.47785 -10.97332" />
    <path d="M -429.47785 10.97332 L -429.47785 -7.02292" />
    <path d="M -331.86924 12.56944 L -331.86924 -5.4268" />
    <path d="M -429.47785 10.97332 L -331.86924 12.56944 L -97.6086 6.58399" />
    <path d="M -54.66082 -2.69345 L -54.66082 -12.50958" />
    <path d="M 56.22255 -13.90299 L 56.22255 -15.34269 L 21.86433 -14.46483 L 256.12497 -10.63414 L 290.4832 -11.51201 L 56.22255 -15.34269" />
</svg>