<svg version="1.1" xmlns="http://www.w3.org/2000/svg" viewBox="-377.51568361395744 -18.364339135670477 726.2043153572455 37.36002278614903" fill="none" stroke="black" stroke-width="0.6%" vector-effect="non-scaling-stroke">
    <path d="M -3.13763 -12.64196 L 153.7439 -10.39302 A 75 1.64258 360 0 1 187.66947 -9.01866 A 75 1.64258 360 0 1 175.42208 -8.11909 L -47.06446 -0.67468 L 0 0 L 335.44124 -11.22388 A 75 1.64258 180 0 0 347.68863 -12.12345 L 347.68863 5.87223" />
    <path d="M -47.06446 17.321 L -47.06446 -0.67468" />
    <path d="M 0 17.99568 L 0 0" />
    <path d="M -47.06446 17.321 L 0 17.99568 L 335.44124 6.77181 A 75 1.64258 180 0 0 347.68863 5.87223" />
    <path d="M 347.68863 -12.12345 A 75 1.64258 180 0 0 313.76307 -13.4978 L 62.75261 -17.09611 A 75 1.64258 180 0 0 -41.07444 -16.62133 L -376.51568 -5.39746 L -329.45122 -4.72277 L -106.96468 -12.16718 A 75 1.64258 0 0 1 -3.13763 -12.64196" />
    <path d="M -376.51568 12.59823 L -376.51568 -5.39746" />
    <path d="M -329.45122 13.27291 L -329.45122 -4.72277" />
    <path d="M -376.51568 12.59823 L -329.45122 13.27291 L -106.96468 5.8285 L -106.96468 -12.16718" />
    <path d="M -106.96468 5.8285 A 75 1.64258 0 0 1 -47.06446 5.08668" />
    <path d="M -3.13763 -2.14448 L -3.13763 -12.64196" />
    <path d="M 153.7439 -7.39374 L 153.7439 -10.39302" />
    <path d="M 335.44124 6.77181 L 335.44124 -11.22388" />
</svg>