<svg version="1.1" xmlns="http://www.w3.org/2000/svg" viewBox="-377.5211865158041 -19.04176642186276 735.8238546998078 38.08353284372552" fill="none" stroke="black" stroke-width="0.6%" vector-effect="non-scaling-stroke">
    <path d="M 334.68703 -13.2192 L 0.01375 -18.04177 L -376.52119 -5.37926 L -329.45776 -4.70109 L -65.8833 -13.56484 L 216.49727 -9.4958 L -47.07718 -0.63205 L -0.01375 0.04613 L 349.13683 -11.69547 A 50 1.10067 180 0 0 357.30267 -12.29829 L 357.30267 5.69735" />
    <path d="M -376.52119 12.61638 L -376.52119 -5.37926" />
    <path d="M -329.45776 13.29455 L -329.45776 -4.70109" />
    <path d="M -376.52119 12.61638 L -329.45776 13.29455 L -65.8833 4.4308 L -47.07718 4.70179" />
    <path d="M -65.8833 4.4308 L -65.8833 -13.56484" />
    <path d="M -47.07718 17.36359 L -47.07718 -0.63205" />
    <path d="M -0.01375 18.04177 L -0.01375 0.04613" />
    <path d="M -47.07718 17.36359 L -0.01375 18.04177 L 349.13683 6.30017 L 349.13683 -11.69547" />
    <path d="M 349.13683 6.30017 A 50 1.10067 180 0 0 357.30267 5.69735" />
    <path d="M 357.30267 -12.29829 A 50 1.10067 180 0 0 334.68703 -13.2192" />
    <path d="M 26.48072 -14.47027 L 26.48072 -15.91733 L -3.64208 -14.90433 L 247.36288 -11.2874 L 277.48567 -12.3004 L 26.48072 -15.91733" />
</svg>